<svg width="220" height="94" viewBox="0 0 220 94" fill="none" xmlns="http://www.w3.org/2000/svg">
<g clip-path="url(#clip0_13_286)">
<path d="M173.191 0.780136H46.8085C21.3878 0.780136 0.780151 21.3877 0.780151 46.8085C0.780151 72.2293 21.3878 92.8369 46.8085 92.8369H173.191C198.612 92.8369 219.22 72.2293 219.22 46.8085C219.22 21.3877 198.612 0.780136 173.191 0.780136Z" fill="#05191E" stroke="url(#paint0_radial_13_286)"/>
<path d="M28.8877 67.604C27.0403 67.604 25.2678 66.9799 23.5703 65.7316C21.673 64.4335 20.7243 62.8857 20.7243 61.0882C20.7243 58.7915 21.8976 57.0939 24.2443 55.9955C25.9918 55.0967 28.1138 54.6474 30.6103 54.6474C33.4063 54.6474 36.5269 55.1716 39.972 56.2201C41.9192 54.0233 43.6917 51.402 45.2894 48.3563C46.8871 45.3106 48.3351 41.8655 49.6332 38.021C50.7816 34.6258 51.6803 31.2306 52.3294 27.8355C53.0284 24.3904 53.5027 20.9952 53.7524 17.6499C44.7652 18.299 37.85 21.12 33.0069 26.1129C31.1096 28.16 30.1609 30.3319 30.1609 32.6287C30.1609 36.4233 32.2579 39.1943 36.452 40.9418C37.0012 41.2414 37.9998 41.541 39.4477 41.8406C39.7473 41.8905 39.8971 41.9904 39.8971 42.1401C39.8971 42.3898 39.7223 42.5146 39.3728 42.5146L39.1481 42.4397C36.2522 42.24 33.5061 41.0167 30.9098 38.7699C28.1138 36.4233 26.7158 33.827 26.7158 30.981C26.7158 28.834 27.5896 26.8868 29.3371 25.1393C34.5297 19.7969 42.6931 16.901 53.8273 16.4516C53.8772 15.7526 53.9022 15.0786 53.9022 14.4295C53.9521 13.7804 53.9771 13.1313 53.9771 12.4823C53.9771 12.2326 53.9771 11.958 53.9771 11.6584C53.9771 11.3089 53.9521 10.8845 53.9022 10.3853C53.8522 9.93589 53.8273 9.53646 53.8273 9.18695C53.8273 8.83745 53.8273 8.56284 53.8273 8.36312C53.8273 8.01362 53.9271 7.83887 54.1269 7.83887C54.1768 7.83887 54.2517 7.96369 54.3515 8.21333C54.751 10.4102 54.9008 13.1563 54.8009 16.4516L56.2239 16.3767C56.4735 16.3767 56.7232 16.3767 56.9728 16.3767C57.2724 16.3268 57.547 16.3018 57.7966 16.3018C59.3944 16.3018 60.9671 16.4267 62.5149 16.6763C64.1127 16.876 65.6854 17.1506 67.2332 17.5001C70.0293 14.8539 72.9751 13.5308 76.0707 13.5308C77.7683 13.5308 79.2412 14.1549 80.4894 15.4031C81.6877 16.6014 82.2869 18.0993 82.2869 19.8967C82.2869 20.5458 82.162 20.8704 81.9124 20.8704C81.8125 20.8704 81.6378 20.1963 81.3881 18.8482C81.1884 16.7512 79.6656 15.7027 76.8196 15.7027C74.8724 15.7027 72.8003 16.6014 70.6035 18.3989C73.4993 19.2976 76.0208 20.5708 78.1677 22.2184C80.764 24.3155 82.0622 26.6621 82.0622 29.2584C82.0622 32.4539 80.2148 35.0003 76.5201 36.8976C73.774 38.2956 70.5535 39.1194 66.8588 39.3691C76.6449 43.9126 81.5379 49.305 81.5379 55.5461C81.5379 58.4919 80.3396 60.9384 77.943 62.8857C75.4965 64.8828 72.7504 65.8814 69.7047 65.8814C65.0613 65.8814 61.0171 65.3322 57.572 64.2338C57.3722 64.1339 56.3237 63.6845 54.4264 62.8857C52.5791 62.1367 49.8829 61.0383 46.3379 59.5904C43.6917 62.7858 41.1703 64.8828 38.7737 65.8814C37.5254 66.4806 36.0775 66.905 34.4298 67.1546C32.7822 67.4542 30.9348 67.604 28.8877 67.604ZM44.166 57.6431C46.1132 55.5461 48.3351 51.8513 50.8315 46.5589C51.9799 44.0624 53.1283 41.5909 54.2766 39.1444C55.425 36.6979 56.5734 34.2513 57.7218 31.8048C59.2196 28.7592 60.6925 26.1379 62.1405 23.941C63.5884 21.6942 65.0114 19.8468 66.4094 18.3989C63.4137 17.7997 60.368 17.5001 57.2724 17.5001C56.873 17.5001 56.4486 17.5001 55.9992 17.5001C55.5498 17.5001 55.1254 17.5251 54.726 17.575C54.5263 20.9203 54.1269 24.3155 53.5277 27.7606C52.9286 31.1557 52.0548 34.6258 50.9064 38.1708C48.41 45.9098 45.2145 52.076 41.32 56.6695L44.166 57.6431ZM69.1805 64.3835C75.5714 64.3835 78.7669 62.2116 78.7669 57.8678C78.7669 51.9762 74.8225 47.133 66.9337 43.3384C66.4344 43.0888 65.8352 42.8391 65.1362 42.5895C64.4372 42.2899 63.6134 41.9155 62.6647 41.4661C62.5149 41.4661 62.44 41.2414 62.44 40.7921C62.44 39.394 63.1141 38.5952 64.4622 38.3955H65.8852C66.3345 38.3955 66.7589 38.3705 67.1583 38.3206C67.6077 38.2207 68.0071 38.1458 68.3566 38.0959C71.1027 37.5966 73.3995 36.6479 75.2469 35.2499C77.3938 33.5024 78.4673 31.4054 78.4673 28.9589C78.4673 26.6122 77.5436 24.5401 75.6962 22.7427C74.8974 21.9438 73.9986 21.2698 73 20.7206C72.0015 20.1214 70.903 19.6221 69.7047 19.2227C68.3067 20.4709 66.9087 22.0936 65.5107 24.0908C64.1127 26.0879 62.7646 28.4346 61.4664 31.1308C60.368 33.5274 59.2695 35.9489 58.1711 38.3955C57.0727 40.7921 55.9742 43.2136 54.8758 45.6601C52.2295 51.4519 49.6582 55.7458 47.1618 58.5418C48.9592 59.1909 50.7317 59.84 52.4792 60.4891C54.2766 61.1881 56.0991 61.8372 57.9464 62.4363C59.9935 63.0854 61.9408 63.5597 63.7881 63.8593C65.6854 64.2088 67.4829 64.3835 69.1805 64.3835ZM29.412 65.9563C31.9084 65.9563 34.5297 65.2323 37.2758 63.7844C40.2216 62.2865 42.3186 60.564 43.5669 58.6167C43.1674 58.417 42.7181 58.2173 42.2188 58.0176C41.7694 57.7679 41.2701 57.5433 40.7209 57.3435C37.2758 61.238 33.606 63.1852 29.7115 63.1852C28.7629 63.1852 28.2886 63.0105 28.2886 62.661C28.2886 62.4114 28.713 62.2865 29.5618 62.2865C32.8571 62.2865 36.1524 60.514 39.4477 56.9691C36.3022 55.8706 33.2315 55.3214 30.2358 55.3214C29.2372 55.3214 28.2886 55.4213 27.3898 55.621C26.541 55.7708 25.7422 55.9955 24.9932 56.295C22.9961 57.0939 21.9975 58.417 21.9975 60.2644C21.9975 62.0119 22.8213 63.4099 24.469 64.4584C25.9169 65.457 27.5646 65.9563 29.412 65.9563Z" fill="url(#paint1_radial_13_286)"/>
<path d="M89.3577 48.8369C89.6489 49.0449 90.013 49.2218 90.4499 49.3674C90.9076 49.513 91.4588 49.5858 92.1038 49.5858C92.7487 49.5858 93.4352 49.4403 94.1634 49.149C94.8914 48.8369 95.4012 48.3793 95.6925 47.7759H96.5974C95.7861 49.4193 94.0801 50.2412 91.4797 50.2412C89.4826 50.2412 87.787 49.5339 86.3932 48.1192C85.0201 46.6837 84.3336 44.8945 84.3336 42.7518C84.3336 40.5881 85.0616 38.7887 86.518 37.3532C87.9742 35.897 89.5553 35.1688 91.2613 35.1688C92.9879 35.1688 94.3402 35.6473 95.318 36.6043C96.3166 37.5404 96.8159 38.6534 96.8159 39.9433C96.8159 41.2332 96.2854 42.3773 95.2244 43.3759C94.1634 44.3745 92.7694 44.8738 91.0428 44.8738C89.3161 44.8738 88.1095 44.1353 87.423 42.6582C87.4437 42.8037 87.4645 43.1158 87.4854 43.5943C87.5269 44.0729 87.5581 44.4473 87.579 44.7177C87.5998 44.9881 87.6517 45.3626 87.735 45.8411C87.839 46.3197 87.943 46.7045 88.0471 46.9958C88.1719 47.2871 88.3487 47.6199 88.5776 47.9943C88.8063 48.3481 89.0664 48.6289 89.3577 48.8369ZM94.1322 39.7872C94.1322 37.1036 93.1127 35.7617 91.074 35.7617C90.0755 35.7617 89.2537 36.2506 88.6088 37.2284C87.9847 38.1853 87.631 39.3504 87.5478 40.7234C87.7974 40.141 88.1719 39.6729 88.6712 39.3192C89.1912 38.9654 89.7217 38.7887 90.2627 38.7887C90.8244 38.7887 91.1053 38.8927 91.1053 39.1007C91.1053 39.288 90.9804 39.3816 90.7308 39.3816C89.7737 39.444 89.0664 39.6832 88.6088 40.0993C88.1719 40.5154 87.9535 41.0771 87.9535 41.7844C87.9535 42.4917 88.2031 43.0951 88.7024 43.5943C89.2225 44.0729 89.8258 44.3121 90.5123 44.3121C91.6357 44.3121 92.5198 43.8647 93.1648 42.9702C93.8097 42.0548 94.1322 40.9938 94.1322 39.7872ZM104.239 50.2412C102.741 50.2412 101.409 49.825 100.244 48.9929C99.1001 48.1399 98.528 46.9646 98.528 45.4667C98.528 44.5929 98.736 43.8335 99.1521 43.1887C99.589 42.5438 100.14 42.0653 100.806 41.7532C102.033 41.1291 103.23 40.817 104.395 40.817C105.56 40.817 106.881 41.1291 108.358 41.7532C108.337 39.3399 108.035 37.7381 107.453 36.9475C106.891 36.1362 106.017 35.7305 104.832 35.7305C103.646 35.7305 102.616 35.949 101.742 36.3858C100.889 36.8227 100.463 37.4052 100.463 38.1333C100.463 38.383 100.348 38.5078 100.119 38.5078C99.9115 38.5078 99.8074 38.3934 99.8074 38.1646C99.8074 37.2908 100.286 36.5731 101.243 36.0114C102.221 35.4289 103.656 35.1376 105.549 35.1376C109.502 35.1376 111.478 37.4676 111.478 42.1277V49.9291H108.358V47.4638C108.212 48.2752 107.744 48.941 106.954 49.461C106.163 49.9811 105.258 50.2412 104.239 50.2412ZM106.985 44.4057C107.734 44.9257 108.191 45.6435 108.358 46.5589V42.3149C106.86 41.7115 105.632 41.4099 104.676 41.4099C103.739 41.4099 103.001 41.8052 102.46 42.5958C101.919 43.3864 101.649 44.3537 101.649 45.4979C101.649 46.642 101.867 47.6199 102.304 48.4312C102.761 49.2218 103.438 49.617 104.332 49.617C105.248 49.617 106.049 49.3881 106.735 48.9305C107.422 48.452 107.765 47.8903 107.765 47.2454C107.765 46.122 107.39 45.3523 106.641 44.9362C106.329 44.7489 106.173 44.5722 106.173 44.4057C106.173 44.2392 106.246 44.156 106.392 44.156C106.537 44.156 106.735 44.2392 106.985 44.4057ZM124.213 45.2794C124.213 44.7802 124.078 44.3016 123.808 43.844C123.558 43.3654 123.194 43.1263 122.715 43.1263C122.258 43.1263 121.894 43.1887 121.623 43.3135C121.374 43.4176 121.228 43.4695 121.186 43.4695C121.061 43.4695 120.999 43.3864 120.999 43.2199C120.999 43.0534 121.113 42.8974 121.342 42.7518C121.592 42.5853 122.018 42.5021 122.622 42.5021C123.246 42.5021 123.755 42.7622 124.151 43.2823C124.567 43.8023 124.796 44.3745 124.837 44.9986V35.4809H127.927V49.9291H124.837V45.3731C124.754 46.6837 124.109 47.8279 122.903 48.8057C121.696 49.7626 120.437 50.2412 119.127 50.2412C117.754 50.2412 116.734 49.7731 116.069 48.8369C115.424 47.88 115.101 45.8619 115.101 42.783V35.4809H118.222V41.9716C118.222 44.4264 118.347 46.2573 118.596 47.4638C118.867 48.6704 119.366 49.2738 120.094 49.2738C121.009 49.2738 121.925 48.8473 122.84 47.9943C123.755 47.1413 124.213 46.2364 124.213 45.2794ZM129.93 36.105V35.4809H132.801V31.2057H135.922V35.4809H139.198V36.105H135.922V45.7475C135.922 48.3271 136.483 49.617 137.607 49.617C138.044 49.617 138.449 49.4818 138.824 49.2114C139.198 48.9201 139.489 48.6392 139.697 48.3688C139.906 48.0775 140.051 47.9319 140.134 47.9319C140.218 47.9319 140.259 47.9839 140.259 48.088C140.259 48.1711 140.228 48.2752 140.166 48.4C139.541 49.6275 138.397 50.2412 136.733 50.2412C135.402 50.2412 134.413 49.7314 133.768 48.7121C133.124 47.6927 132.801 46.33 132.801 44.6241V36.105H129.93ZM150.904 50.0227C148.865 50.0227 147.409 49.2842 146.535 47.8071C146.056 47.0165 145.775 46.278 145.692 45.5915C145.588 44.7594 145.536 43.5112 145.536 41.8468C145.536 40.1617 145.443 38.747 145.255 37.6029C145.089 36.4378 144.652 35.8553 143.945 35.8553C143.071 35.8553 142.384 36.1881 141.885 36.8539C141.407 37.4988 141.167 38.1541 141.167 38.8199C141.167 40.4009 141.771 41.1915 142.977 41.1915C143.289 41.1915 143.581 41.1186 143.851 40.9731C144.122 40.8275 144.267 40.7546 144.288 40.7546C144.434 40.7546 144.506 40.8794 144.506 41.1291C144.506 41.358 144.298 41.5348 143.882 41.6596C143.487 41.7637 143.112 41.8156 142.759 41.8156C142.114 41.8156 141.583 41.5348 141.167 40.9731C140.751 40.3906 140.543 39.7456 140.543 39.0383C140.543 37.8942 140.939 36.9683 141.729 36.261C142.52 35.5328 143.581 35.1688 144.912 35.1688C145.578 35.1688 146.139 35.356 146.597 35.7305C147.076 36.105 147.429 36.5523 147.658 37.0724C147.908 37.5716 148.105 38.2374 148.251 39.0695C148.417 40.1305 148.501 41.6491 148.501 43.6255C148.501 45.602 148.657 47.0582 148.969 47.9943C149.281 48.9305 149.999 49.3986 151.122 49.3986C152.994 49.3986 154.523 48.5248 155.709 46.7773C156.916 45.009 157.518 42.9702 157.518 40.661C157.518 39.2463 157.259 38.0814 156.738 37.166C156.239 36.2506 155.46 35.7929 154.399 35.7929C153.67 35.7929 153.078 36.053 152.62 36.5731C152.162 37.0931 151.933 37.6757 151.933 38.3206C151.933 38.9654 152.079 39.4856 152.37 39.8809C152.682 40.2553 153.067 40.4426 153.525 40.4426C153.712 40.4426 153.941 40.4009 154.211 40.3177C154.503 40.2346 154.669 40.1929 154.711 40.1929C154.877 40.1929 154.96 40.2865 154.96 40.4738C154.96 40.8275 154.638 41.025 153.993 41.0667H153.65C152.901 41.0667 152.318 40.817 151.902 40.3177C151.507 39.7977 151.309 39.1007 151.309 38.227C151.309 37.3532 151.621 36.6355 152.245 36.0738C152.87 35.4913 153.618 35.2 154.492 35.2C155.366 35.2 156.052 35.3977 156.551 35.7929C157.05 36.1881 157.415 36.7603 157.643 37.5092C158.04 38.7991 158.236 40.453 158.236 42.4709V52.4255C158.236 54.1107 157.603 55.4108 156.333 56.3263C155.064 57.2624 153.556 57.7305 151.809 57.7305C150.061 57.7305 148.584 57.3248 147.377 56.5135C146.192 55.7229 145.599 54.6307 145.599 53.2369C145.599 52.4672 145.723 51.9158 145.973 51.583C146.056 51.4582 146.181 51.3958 146.348 51.3958C146.514 51.3958 146.597 51.4998 146.597 51.7078C146.597 51.7702 146.535 51.9263 146.41 52.1759C146.285 52.4255 146.223 52.7688 146.223 53.2057C146.223 54.2667 146.712 55.1716 147.689 55.9206C148.667 56.6903 149.749 57.0752 150.935 57.0752C152.121 57.0752 153.109 56.6176 153.899 55.7021C154.711 54.7867 155.116 53.7154 155.116 52.488V48.7121C153.993 49.5858 152.589 50.0227 150.904 50.0227Z" fill="url(#paint2_radial_13_286)"/>
<path d="M91.5111 64.1901C90.3461 63.7949 89.4827 63.2019 88.921 62.4113C88.3593 61.6208 88.0785 60.539 88.0785 59.166C88.0785 57.252 88.8067 55.7229 90.2629 54.5787C91.7191 53.4137 93.1962 52.8312 94.6941 52.8312C96.2127 52.8312 97.5443 53.1745 98.6884 53.861C99.8535 54.5268 100.436 55.442 100.436 56.6071C100.436 57.3144 100.217 57.8553 99.7806 58.2298C99.3437 58.6043 98.8132 58.7915 98.1891 58.7915C97.5858 58.7915 97.0969 58.625 96.7225 58.2922C96.3687 57.9385 96.192 57.6161 96.192 57.3248C96.192 57.0128 96.2439 56.8567 96.348 56.8567C96.4728 56.8567 96.5769 56.9296 96.6601 57.0752C96.7432 57.2 96.8161 57.3456 96.8785 57.5121C97.045 57.9489 97.3985 58.1674 97.9395 58.1674C98.5012 58.1674 98.9381 58.0321 99.2501 57.7617C99.5829 57.4913 99.7494 57.1064 99.7494 56.6071C99.7494 55.6917 99.2397 54.9427 98.2203 54.3603C97.201 53.7778 96.0464 53.4865 94.7565 53.4865C93.4666 53.4865 92.2601 53.8817 91.1367 54.6723C90.0132 55.4629 89.4515 56.4615 89.4515 57.6681C89.4515 58.4794 89.7324 59.1555 90.2941 59.6965C90.8766 60.2165 91.5216 60.591 92.2288 60.8199C92.957 61.0488 93.8932 61.3192 95.0374 61.6312C96.2024 61.9433 97.1074 62.2449 97.7523 62.5362C99.9991 63.5348 101.122 65.3342 101.122 67.9348C101.122 69.2454 100.873 70.4 100.374 71.3986C99.895 72.3972 99.2813 73.1566 98.5324 73.6766C97.0553 74.6752 95.5679 75.1745 94.07 75.1745C92.6969 75.1745 91.2822 74.748 89.826 73.895C89.1187 73.4789 88.5361 72.8965 88.0785 72.1475C87.6209 71.3986 87.392 70.5248 87.392 69.5262C87.392 68.5069 87.6624 67.7683 88.2033 67.3106C88.765 66.8321 89.2539 66.5929 89.67 66.5929C90.1069 66.5929 90.4813 66.6865 90.7934 66.8738C91.1054 67.061 91.2615 67.269 91.2615 67.4979C91.2615 67.7268 91.2095 67.8411 91.1054 67.8411C91.0014 67.8411 90.9182 67.8099 90.8558 67.7475C90.8141 67.6851 90.7726 67.6122 90.731 67.5291C90.5854 67.3211 90.2421 67.217 89.7012 67.217C89.1811 67.217 88.7546 67.4459 88.4218 67.9035C88.1097 68.3404 87.9537 68.9021 87.9537 69.5887C87.9537 71.0865 88.5882 72.2931 89.8572 73.2085C91.1262 74.103 92.4889 74.5504 93.9452 74.5504C95.9423 74.5504 97.5338 73.8743 98.7196 72.522C99.4062 71.7106 99.7494 70.6704 99.7494 69.4014C99.7494 68.1324 99.3125 67.1858 98.4388 66.5617C97.5858 65.9168 96.3792 65.4175 94.8189 65.0638C93.2586 64.6894 92.156 64.3981 91.5111 64.1901ZM109.054 75.2057C107.556 75.2057 106.224 74.7896 105.059 73.9575C103.915 73.1044 103.343 71.9291 103.343 70.4312C103.343 69.5574 103.551 68.7981 103.967 68.1532C104.404 67.5083 104.955 67.0298 105.621 66.7177C106.848 66.0936 108.045 65.7816 109.21 65.7816C110.375 65.7816 111.696 66.0936 113.173 66.7177C113.152 64.3044 112.85 62.7027 112.268 61.9121C111.706 61.1007 110.832 60.695 109.646 60.695C108.461 60.695 107.431 60.9135 106.557 61.3504C105.704 61.7872 105.278 62.3697 105.278 63.0979C105.278 63.3475 105.163 63.4723 104.934 63.4723C104.726 63.4723 104.622 63.358 104.622 63.1291C104.622 62.2553 105.101 61.5376 106.058 60.9759C107.036 60.3934 108.471 60.1021 110.364 60.1021C114.317 60.1021 116.293 62.4321 116.293 67.0922V74.8936H113.173V72.4284C113.027 73.2397 112.559 73.9055 111.768 74.4255C110.978 74.9456 110.073 75.2057 109.054 75.2057ZM111.8 69.3702C112.549 69.8903 113.006 70.608 113.173 71.5234V67.2794C111.675 66.6761 110.448 66.3745 109.49 66.3745C108.554 66.3745 107.816 66.7697 107.275 67.5603C106.734 68.3509 106.463 69.3183 106.463 70.4624C106.463 71.6066 106.682 72.5844 107.119 73.3957C107.577 74.1863 108.253 74.5816 109.147 74.5816C110.063 74.5816 110.863 74.3527 111.55 73.895C112.237 73.4165 112.58 72.8548 112.58 72.2099C112.58 71.0865 112.205 70.3168 111.456 69.9007C111.144 69.7135 110.988 69.5367 110.988 69.3702C110.988 69.2037 111.061 69.1206 111.207 69.1206C111.352 69.1206 111.55 69.2037 111.8 69.3702ZM121.383 73.895V53.1745H124.503V75.6738C124.503 77.4005 125.283 78.295 126.844 78.3575C126.948 78.3575 127.031 78.3991 127.093 78.4823C127.177 78.5654 127.218 78.6695 127.218 78.7943C127.218 78.9192 127.177 78.9816 127.093 78.9816C126.386 78.9816 125.741 78.836 125.159 78.5447C124.576 78.2534 124.129 77.9518 123.817 77.6397C123.505 77.3484 123.099 76.8908 122.6 76.2667C122.1 75.6426 121.674 75.1433 121.32 74.7688C120.967 74.3943 120.592 74.1447 120.197 74.0199C119.822 73.8743 119.396 73.791 118.918 73.7702C118.439 73.7286 118.2 73.6246 118.2 73.4582C118.2 73.2293 118.512 73.1149 119.136 73.1149C119.781 73.1149 120.53 73.375 121.383 73.895ZM128.095 67.6851C128.095 65.5631 128.823 63.7844 130.279 62.3489C131.756 60.9135 133.639 60.1957 135.927 60.1957C138.236 60.1957 140.109 60.8718 141.544 62.2241C142.98 63.5764 143.697 65.3551 143.697 67.5603C143.697 68.8709 143.448 70.036 142.949 71.0553C142.449 72.0539 141.804 72.834 141.014 73.3957C139.391 74.4984 137.696 75.0496 135.927 75.0496C134.201 75.0496 132.516 74.4775 130.872 73.3333C130.061 72.7716 129.395 72.0019 128.875 71.0241C128.355 70.0255 128.095 68.9126 128.095 67.6851ZM136.988 65.6879L136.083 65.5007C135.688 65.5007 135.345 65.6775 135.053 66.0312C134.783 66.364 134.648 66.7697 134.648 67.2482C134.648 67.7059 134.856 68.1636 135.272 68.6213C135.688 69.0789 136.271 69.3078 137.019 69.3078C137.789 69.3078 138.538 68.9438 139.266 68.2156C140.015 67.4667 140.39 66.4161 140.39 65.0638C140.39 63.7115 139.953 62.6714 139.079 61.9433C138.226 61.1943 137.144 60.8199 135.834 60.8199C135.002 60.8199 134.284 60.9863 133.68 61.3191C133.077 61.6312 132.619 62.0161 132.307 62.4738C131.995 62.9314 131.756 63.514 131.59 64.2213C131.34 65.2615 131.215 66.4681 131.215 67.8411C131.215 72.2307 132.817 74.4255 136.021 74.4255C137.914 74.4255 139.162 73.7078 139.766 72.2723C140.286 71.0449 140.546 69.4534 140.546 67.4979C140.358 68.0388 139.922 68.5796 139.235 69.1206C138.569 69.6615 137.831 69.9319 137.019 69.9319C136.208 69.9319 135.501 69.6615 134.897 69.1206C134.315 68.5589 134.024 67.9348 134.024 67.2482C134.024 66.5617 134.211 66 134.585 65.5631C134.96 65.1055 135.49 64.8766 136.177 64.8766C136.884 64.8766 137.238 65.0743 137.238 65.4695C137.238 65.6151 137.155 65.6879 136.988 65.6879ZM145.739 67.6851C145.739 65.5631 146.467 63.7844 147.924 62.3489C149.401 60.9135 151.284 60.1957 153.572 60.1957C155.881 60.1957 157.754 60.8718 159.19 62.2241C160.625 63.5764 161.343 65.3551 161.343 67.5603C161.343 68.8709 161.093 70.036 160.594 71.0553C160.094 72.0539 159.449 72.834 158.659 73.3957C157.036 74.4984 155.34 75.0496 153.572 75.0496C151.845 75.0496 150.16 74.4775 148.517 73.3333C147.705 72.7716 147.04 72.0019 146.519 71.0241C145.999 70.0255 145.739 68.9126 145.739 67.6851ZM154.633 65.6879L153.728 65.5007C153.333 65.5007 152.989 65.6775 152.698 66.0312C152.428 66.364 152.292 66.7697 152.292 67.2482C152.292 67.7059 152.501 68.1636 152.917 68.6213C153.333 69.0789 153.915 69.3078 154.664 69.3078C155.434 69.3078 156.183 68.9438 156.912 68.2156C157.66 67.4667 158.035 66.4161 158.035 65.0638C158.035 63.7115 157.598 62.6714 156.724 61.9433C155.871 61.1943 154.789 60.8199 153.478 60.8199C152.646 60.8199 151.928 60.9863 151.325 61.3191C150.722 61.6312 150.264 62.0161 149.952 62.4738C149.64 62.9314 149.401 63.514 149.234 64.2213C148.985 65.2615 148.86 66.4681 148.86 67.8411C148.86 72.2307 150.462 74.4255 153.665 74.4255C155.559 74.4255 156.807 73.7078 157.411 72.2723C157.93 71.0449 158.191 69.4534 158.191 67.4979C158.004 68.0388 157.567 68.5796 156.88 69.1206C156.214 69.6615 155.475 69.9319 154.664 69.9319C153.853 69.9319 153.145 69.6615 152.542 69.1206C151.96 68.5589 151.668 67.9348 151.668 67.2482C151.668 66.5617 151.856 66 152.23 65.5631C152.604 65.1055 153.135 64.8766 153.822 64.8766C154.529 64.8766 154.883 65.0743 154.883 65.4695C154.883 65.6151 154.799 65.6879 154.633 65.6879ZM168.096 65.095C168.096 65.5943 168.22 66.0832 168.47 66.5617C168.742 67.0193 169.105 67.2482 169.562 67.2482C170.041 67.2482 170.405 67.1963 170.654 67.0922C170.926 66.9674 171.082 66.905 171.123 66.905C171.247 66.905 171.31 66.9881 171.31 67.1546C171.31 67.3211 171.185 67.4874 170.935 67.6539C170.708 67.7995 170.28 67.8723 169.656 67.8723C169.054 67.8723 168.554 67.6227 168.158 67.1234C167.763 66.6241 167.534 66.0729 167.472 65.4695V74.8936H164.382V60.4454H167.472V65.0014C167.556 63.6908 168.2 62.5569 169.406 61.6C170.614 60.6222 171.872 60.1333 173.182 60.1333C174.515 60.1333 175.46 60.539 176.022 61.3504C176.605 62.141 176.969 63.2851 177.114 64.783C177.198 63.5348 177.843 62.453 179.049 61.5376C180.277 60.6014 181.536 60.1333 182.825 60.1333C184.198 60.1333 185.207 60.6119 185.852 61.5688C186.518 62.505 186.85 64.5126 186.85 67.5915V74.8936H183.73V68.4028C183.73 65.948 183.595 64.1172 183.324 62.9106C183.074 61.7041 182.586 61.1007 181.857 61.1007C180.943 61.1007 180.027 61.5271 179.111 62.3801C178.197 63.2332 177.738 64.1381 177.738 65.095C177.738 65.5943 177.863 66.0832 178.113 66.5617C178.384 67.0193 178.81 67.2482 179.392 67.2482C179.746 67.2482 180.047 67.1963 180.297 67.0922C180.569 66.9674 180.725 66.905 180.765 66.905C180.89 66.905 180.952 66.9881 180.952 67.1546C180.952 67.3211 180.828 67.4874 180.578 67.6539C180.35 67.7995 179.944 67.8723 179.361 67.8723C178.799 67.8723 178.322 67.6747 177.925 67.2794C177.531 66.8633 177.281 66.3328 177.176 65.6879C177.198 66.0832 177.208 66.7177 177.208 67.5915V74.8936H174.087V68.4028C174.087 65.948 173.953 64.1172 173.681 62.9106C173.432 61.7041 172.943 61.1007 172.215 61.1007C171.3 61.1007 170.385 61.5271 169.469 62.3801C168.554 63.2332 168.096 64.1381 168.096 65.095Z" fill="url(#paint3_radial_13_286)"/>
<path d="M164.688 32.2859L176.371 44.7569L170.746 32.2859H164.688ZM179.916 46.7636L186.462 32.2859H173.371L179.916 46.7636ZM170.803 29.8854L174.628 22.6842H169.715L164.313 29.8854H170.803ZM183.461 44.7569L195.145 32.2859H189.086L183.461 44.7569ZM173.521 29.8854H186.312L182.486 22.6842H177.346L173.521 29.8854ZM189.03 29.8854H195.519L190.117 22.6842H185.204L189.03 29.8854ZM191.675 20.7713L198.875 30.373C199.052 30.5981 199.133 30.8574 199.12 31.1512C199.108 31.445 199.002 31.6983 198.8 31.9108L180.798 51.1143C180.573 51.3644 180.278 51.4894 179.916 51.4894C179.554 51.4894 179.259 51.3644 179.035 51.1143L161.032 31.9108C160.831 31.6983 160.725 31.445 160.712 31.1512C160.7 30.8574 160.781 30.5981 160.957 30.373L168.158 20.7713C168.383 20.4463 168.701 20.2837 169.114 20.2837H190.718C191.13 20.2837 191.45 20.4463 191.675 20.7713Z" fill="url(#paint4_radial_13_286)"/>
</g>
<defs>
<radialGradient id="paint0_radial_13_286" cx="0" cy="0" r="1" gradientUnits="userSpaceOnUse" gradientTransform="translate(109.22) rotate(89.5225) scale(93.6203 220.008)">
<stop stop-color="#DFDFDF"/>
<stop offset="1" stop-color="#D08E16"/>
</radialGradient>
<radialGradient id="paint1_radial_13_286" cx="0" cy="0" r="1" gradientUnits="userSpaceOnUse" gradientTransform="translate(53.0496 46.8085) rotate(90) scale(46.8085 32.766)">
<stop stop-color="#DFDFDF"/>
<stop offset="1" stop-color="#E29E23"/>
</radialGradient>
<radialGradient id="paint2_radial_13_286" cx="0" cy="0" r="1" gradientUnits="userSpaceOnUse" gradientTransform="translate(121.702 39.7872) rotate(90) scale(19.5035 39.0071)">
<stop stop-color="#DFDFDF"/>
<stop offset="1" stop-color="#E29E23"/>
</radialGradient>
<radialGradient id="paint3_radial_13_286" cx="0" cy="0" r="1" gradientUnits="userSpaceOnUse" gradientTransform="translate(137.305 64.7518) rotate(90) scale(19.5035 51.4894)">
<stop stop-color="#E29E23"/>
<stop offset="1" stop-color="#A9A9A9"/>
</radialGradient>
<radialGradient id="paint4_radial_13_286" cx="0" cy="0" r="1" gradientUnits="userSpaceOnUse" gradientTransform="translate(179.916 35.8865) rotate(90) scale(15.6028 19.2047)">
<stop stop-color="#D08E16"/>
<stop offset="1" stop-color="#DFDFDF"/>
</radialGradient>
<clipPath id="clip0_13_286">
<rect width="220" height="93.617" fill="white"/>
</clipPath>
</defs>
</svg>
